<?xml version="1.0" encoding="utf-8"?>
<!-- Generator: Adobe Illustrator 24.0.0, SVG Export Plug-In . SVG Version: 6.00 Build 0)  -->
<svg version="1.1" id="Layer_1" xmlns="http://www.w3.org/2000/svg" xmlns:xlink="http://www.w3.org/1999/xlink" x="0px" y="0px"
	 viewBox="0 0 177 24" style="enable-background:new 0 0 177 24;" xml:space="preserve">
<style type="text/css">
	.st0{fill:#8C1515;}
	.st1{fill-rule:evenodd;clip-rule:evenodd;fill:#2E2D29;}
</style>
<g>
	<path class="st0" d="M30.5,21.8c-4.1,0-4.4-2.8-4.4-3.7c0-0.8,0.2-1.6,0.8-2.3c0.5-0.7,1.3-1.2,2.2-1.4c2.7-0.9,3.3-1,5.2-1.5v-0.4
		c0-0.5,0-1-0.2-1.5s-0.6-0.9-1.1-1.2s-1.1-0.4-1.7-0.4S30,9.5,29.5,9.8c-0.5,0.3-1,0.7-1.3,1.3l-0.8-0.4c0.5-1.6,2.2-3.1,5.2-3.1
		c2.1,0,3.5,0.5,4.4,1.7c0.6,0.9,0.7,2.2,0.7,3.6c0,1.2,0,2.5-0.1,3.6c0,0.7,0,1.4,0,1.8c0,1,0.2,1.7,1.1,1.7c0.4,0,0.4-0.1,0.8-0.3
		l0.5,0.5c-0.8,0.9-1.7,1.7-3.2,1.7c-0.5,0-1-0.1-1.4-0.3c-0.4-0.3-0.7-0.6-0.9-1.1c-0.5,0.5-1.1,0.8-1.7,1.1
		C31.9,21.7,31.2,21.8,30.5,21.8z M34.1,14.5c-1.1,0.3-2.3,0.7-3.3,1.1c-0.4,0.2-0.8,0.5-1,0.9s-0.3,0.8-0.3,1.3c0,0.8,0.3,2,2.3,2
		c0.8,0,1.7-0.2,2.4-0.6L34.1,14.5z M0.1,21.1c0-1.4,0-2.6-0.1-4h0.9c0,0.7,0.2,1.4,0.7,2c0.6,0.7,2.1,1.1,3.5,1.1
		c2.9,0,4.2-1,4.2-3.1c0-1.8-1.2-2.6-3-3.7L6,13.2l-1.8-1.1c-2.5-1.5-3.8-2.8-3.8-5.2c0-1.2,0.5-5.1,6.9-5.1c1.7,0,3.3,0.1,5,0.4
		c0,0.2,0,1.1,0,1.8c0,0.9,0,1.2,0,2.2h-0.8c0-0.4,0-0.7-0.2-1c-0.1-0.3-0.3-0.6-0.6-0.9c-0.6-0.6-2-0.8-3.4-0.8
		c-3.4,0-3.8,1.6-3.8,2.8c0,1.6,0.9,2.2,2.9,3.4l2.5,1.2c2,1.2,3.8,2.3,3.8,5.3c0,5-5.1,5.5-7.3,5.5C3.6,21.8,1.8,21.5,0.1,21.1
		L0.1,21.1z M41.1,8.4c1,0,2.1,0,3.1-0.2c0.7-0.1,1.4-0.3,2-0.6l0.3,0.2v1.1c1.3-0.9,2.8-1.3,4.4-1.3c2.7,0,4.5,1.2,5,3.3
		c0.2,0.8,0.2,1.6,0.2,2.5v4c0,2.3,0.1,2.9,0.6,3.3c0.4,0.3,0.9,0.4,1.5,0.4v0.6c-1,0-2.7-0.1-3.8-0.1c-1.4,0-3,0.1-3.8,0.1v-0.6
		c0.6,0,1.1-0.2,1.5-0.5c0.4-0.4,0.5-1.2,0.6-2.9c0-0.5,0-1.6,0-2.4c0-1.1,0-2.1-0.1-3.2c-0.2-1.8-1.3-2.6-3.2-2.6
		c-1,0-2,0.2-2.8,0.6v7.2c0,2.3,0.1,2.9,0.6,3.3c0.4,0.3,0.9,0.4,1.5,0.4v0.6c-1.2-0.1-2.8-0.1-3.7-0.1c-1.3,0-2.5,0-3.8,0.1v-0.7
		c0.3,0,0.6,0,0.9-0.1c0.3-0.1,0.5-0.2,0.8-0.4c0.5-0.5,0.5-1.6,0.5-4v-4c0-1.7,0-2.4-0.3-2.8c-0.3-0.4-0.7-0.5-1.8-0.5L41.1,8.4z
		 M60,21c0.3,0,0.6,0,0.9-0.1c0.3-0.1,0.5-0.3,0.8-0.5c0.5-0.5,0.5-1.6,0.5-4V9.6h-2V8.8c0.7-0.2,1.3-0.5,2-0.9c0-1.2,0-2.4,0.2-3.7
		c0.6-2.9,2.6-4.3,6-4.3c1.4,0,2.7,0.4,3.8,1.2l0.1,0.3l-1.5,1.9h-0.4c-0.5-1.2-1.3-1.8-2.7-1.8c-0.6,0-1.1,0.2-1.5,0.5
		c-0.7,0.6-0.8,1.5-0.8,3.2v2.7h3.4v1.7h-3.4v7.7c0,1.8,0.1,2.7,0.3,3.1c0.4,0.6,1.8,0.6,2.4,0.6v0.7c-1.1-0.1-2.8-0.1-4.1-0.1
		c-1.4,0-2.8,0-4.1,0.2L60,21z M77.5,21.9c-4.6,0-7.4-2.6-7.4-7c0-3.4,2-7.4,7.7-7.4c4.6,0,7.4,2.6,7.4,7
		C85.2,17.9,83.2,21.9,77.5,21.9z M77.7,9.1c-0.8,0-1.5,0.2-2.2,0.6c-1.2,0.9-1.8,2.6-1.8,5c0,0.9,0.2,5.6,3.9,5.6
		c0.8,0,1.5-0.2,2.1-0.6c1.2-0.9,1.8-2.6,1.8-5C81.6,13.7,81.4,9.1,77.7,9.1L77.7,9.1z M86.7,8.3c1.1,0,2.2,0,3.3-0.2
		c0.6-0.1,1.2-0.2,1.8-0.5l0.3,0.1v1.2c0.9-0.8,2.2-1.3,3.5-1.3c0.5,0,1,0,1.4,0.2c0.5,0.2,0.9,0.4,1.2,0.7v0.4L96.9,11h-0.6
		c-0.2-0.4-0.6-0.7-1.1-0.9s-1-0.3-1.5-0.3c-0.6,0-1.2,0.1-1.7,0.4v7c0,1.8,0.1,2.7,0.3,3c0.4,0.6,1.7,0.6,2.4,0.6v0.8
		c-1,0-2.8-0.1-4.1-0.1c-1.4,0-2.8,0-4.1,0.1v-0.7c0.3,0,0.6,0,0.9-0.1s0.5-0.3,0.8-0.5c0.5-0.5,0.5-1.6,0.5-4v-4
		c0-1.7,0-2.4-0.3-2.8C88.1,9.1,87.6,9,86.6,9L86.7,8.3z M108.1,0.7c1.2,0,2.4-0.2,3.6-0.4c0.6-0.1,1.1-0.2,1.7-0.4l0.3,0.1
		c-0.1,1.1-0.1,3.7-0.1,5.5v11.4c0,1.7,0,2.7,0.3,3.1s0.8,0.5,1.8,0.5v0.7c-1.1,0-2.2,0.1-3.3,0.3c-0.6,0.1-1.1,0.2-1.7,0.4
		l-0.4-0.1v-1.2c-1.2,0.8-2.7,1.3-4.2,1.3c-4.2,0-6.9-2.6-6.9-6.7c0-1.3,0.3-2.5,0.8-3.7c1.3-2.5,3.9-3.9,7.3-3.9c1,0,2,0.1,3,0.3
		v-3c0-1.7,0-2.6-0.3-3s-0.5-0.4-1.7-0.5L108.1,0.7L108.1,0.7z M107.6,19.9c0.9,0,1.7-0.1,2.5-0.6v-9.2c-0.8-0.7-1.9-1-3-0.9
		c-3,0-4.4,1.8-4.4,5.6C102.6,16.4,103.1,19.9,107.6,19.9L107.6,19.9z M24.5,20.3c-0.5,0.5-1.1,1-1.9,1.2c-0.6,0.3-1.4,0.4-2.2,0.4
		c-2.3,0-3.6-0.8-4.2-2.5c-0.2-0.9-0.3-1.9-0.2-2.8c0-2.2,0-4,0.1-6v-1h-2V9c0.7-0.2,1.3-0.6,1.9-1c1.2-0.9,2.2-2,2.8-3.3h0.6v3.2
		h5.2v1.7h-5.2v7.3c0,2.2,0.4,3.4,2.7,3.4c0.8,0,1.5-0.2,2.2-0.5L24.5,20.3z"/>
	<path class="st0" d="M120.2,0.6V23h1V0.6"/>
	<path class="st1" d="M136.4,16.4c0,0.1,0,0.3,0,0.4s0,0.2,0,0.3c0,0.2,0,0.3,0.1,0.5c0,0.1,0,0.2,0.1,0.4c0,0.1,0.1,0.3,0.1,0.5
		c0.2,0.7,0.7,1.2,1.4,1.5c0.1,0.1,0.3,0.2,0.5,0.3c0.2,0.1,0.7,0.2,0.9,0v-0.1c-0.3,0-0.6-0.2-0.8-0.5c0-0.1-0.1-0.3-0.1-0.3
		c-0.3-0.8-0.4-1.6-0.3-2.4c0-0.4,0-0.9,0-1.4c0.1-0.5,0.1-1.1,0.1-1.6c0.1-0.3,0-0.7,0.1-1.1c0.2-0.7,0.3-1.4,0.5-2
		c0.1-0.5,0.3-0.9,0.4-1.4c0.3-0.9,0.7-1.9,1-2.7s0.2-1.7-0.3-2.2c-0.2-0.2-0.5-0.5-0.7-0.3c-0.1,0.2-0.3,0.4-0.4,0.6
		c-0.1,0.2-0.1,0.4-0.2,0.5c-0.1,0.3-0.2,0.6-0.3,0.8c-0.1,0.2-0.1,0.4-0.2,0.6c-0.1,0.3-0.2,0.5-0.3,0.8c-0.1,0.2-0.2,0.9-0.3,1
		c0,0.2-0.1,0.4-0.2,0.6c-0.1,0.4-0.2,0.8-0.3,1.3c-0.1,0.2-0.1,0.4-0.1,0.6c-0.1,0.4-0.2,0.9-0.3,1.2c0,0.3-0.1,0.5-0.1,0.8
		c0,0.1,0,0.3,0,0.4C136.4,14.3,136.4,15.3,136.4,16.4z"/>
	<path class="st1" d="M175.6,7.1c-0.1,0.1-1,0-1.1,0.1s0.1,0.7,0.1,0.9c0.2,0.5,1,1.2,1.6,0.8c0-0.2,0-0.4,0-0.6
		c0-0.3,0.2-0.9-0.1-1C176,7,175.8,7.1,175.6,7.1z"/>
	<path class="st1" d="M151.4,8.5c-0.2,0.1-0.5,0.1-0.6,0.3c-0.1,0.3-0.2,0.6-0.2,0.9c-0.1,0.3-0.2,0.7-0.3,1c0,0.1-0.1,0.3-0.1,0.3
		c-0.1,0.2-0.1,0.3-0.2,0.5c-0.1,0.2-0.1,0.6-0.1,0.6c-0.1,0.2-0.1,0.4-0.2,0.6c-0.4,1-0.5,2-0.9,3c-0.1,0.2-0.1,0.4-0.1,0.6
		c-0.2,0.6-0.5,1.3,0.3,1.6c0.3,0.1,0.6,0.1,0.8,0.1c0.4-0.2,0.9-1.2,1.1-1.6c0.4-0.7,0.9-1.4,1.4-2.1c0,0,0.1-0.2,0.2-0.2
		c0.2-0.2,0.3-0.3,0.4-0.5c0.1,0,0.2-0.2,0.2-0.2c0.1-0.2,0.2-0.2,0.3-0.4c0.1-0.1,0.2-0.2,0.3-0.3c0.1-0.3,0.3-0.5,0.6-0.7h0.1
		c0,0.3,0,0.6,0,0.8c0,0.5-0.1,1-0.1,1.5c0,0.3,0,0.4-0.1,0.7c0,0.1,0,0.4,0,0.5s0,0.1,0,0.2c0.1,0.4-0.2,1.2,0,1.5
		c0.1,0.2,1.2,0.5,1.5,0.3s0.4-0.5,0.6-0.8c0.3-0.5,0.7-1.1,1.1-1.6l0.1-0.1c0.1-0.1,0.2-0.3,0.3-0.4c0.3-0.4,0.6-0.9,0.9-1.3
		c0.1-0.2,0.4-0.6,0.6-0.6c0.1,0.1,0.1,0.3,0.1,0.4c0,0.4-0.1,1-0.2,1.5c0,0.4-0.1,0.9-0.1,1.3c0,0.1,0,0.3,0,0.4
		c-0.1,1.5,0.3,3,2.2,2.5c0.2,0,0.3,0.1,0.4,0l0.1-0.1c-0.5-0.1-0.8-1.1-0.7-1.7v-0.2c0-0.4,0-0.9,0.1-1.3c0-0.1,0.1-0.4,0.1-0.4
		c0-0.2,0.1-0.4,0.1-0.6c0-0.2,0-0.4,0.1-0.6c0.1-0.5,0.3-1.8,0.2-2.2l-0.2-0.2c-0.2-0.1-1-0.5-1.3-0.4c-0.4,0.1-0.8,0.7-1.1,1
		c-0.1,0.1-0.2,0.2-0.3,0.3c-0.5,0.6-1.2,1.5-1.7,2.1c0,0.1-0.1,0.1-0.1,0.2c-0.2,0.2-0.3,0.4-0.5,0.6l0,0c-0.1-0.1,0-0.3,0-0.4
		c0-0.3,0-0.6,0.1-0.9l0.3-2c0.1-0.3,0.1-0.5,0.1-0.8c0-0.1,0-0.1,0-0.2c0-0.1-0.1-0.2-0.1-0.2c-0.2-0.3-1.1-0.8-1.5-0.6
		c-0.2,0.1-0.4,0.3-0.5,0.4l-0.1,0.1c-0.3,0.3-0.6,0.7-0.9,1c-0.2,0.2-0.3,0.3-0.5,0.6c-0.1,0.1-0.2,0.2-0.3,0.3
		c-0.1,0.2-0.5,0.6-0.7,0.9c-0.1,0.1-0.1,0.2-0.2,0.3h-0.1v-0.1c0-0.3,0.1-0.6,0.2-0.9c0-0.2,0.1-0.4,0.1-0.6
		c0.3-0.7,0.5-1.3,0.7-2.1C152.9,9.2,152.4,8.5,151.4,8.5z"/>
	<path class="st1" d="M165.4,8.7h-0.3c-0.2,0-0.3,0.1-0.4,0.3c-0.1,0.3-0.2,0.6-0.3,0.9c-0.1,0.3-0.2,0.7-0.3,1.1
		c-0.4,1.2-0.7,1.9-1.1,3.1c-0.1,0.2-0.2,0.5-0.2,0.7c0,0.1-0.1,0.3-0.1,0.4c0,0.1,0,0.2-0.1,0.2c-0.1,0.2-0.3,1-0.3,1.1
		c-0.1,0.3-0.1,0.6-0.2,1c0,0.1,0.1,0.2,0.2,0.3c0.1,0.1,0.2,0.1,0.3,0.2c0.2,0.1,0.4,0.2,0.6,0.3c0.1,0,0.1,0,0.1,0
		c0.6-0.1,0.9-1.1,1.2-1.5c0.4-0.7,0.8-1.3,1.3-1.9c0.1-0.1,0.3-0.4,0.4-0.5c0.2-0.3,0.4-0.5,0.6-0.7c0.3-0.3,0.6-0.7,0.9-0.8
		c0.1,0,0.1,0.1,0.1,0.1c0,1-0.3,2.2-0.2,3.2c0,0.4,0,0.6,0,0.8c0,0.3,0,0.5,0.1,0.7c0,0.3,0.1,0.7,0.3,1c0.1,0.1,0.2,0.2,0.2,0.2
		c0.4,0.2,0.8,0.2,1.2,0.2c0.3-0.1,0.5-0.3,0.7-0.5c0.3-0.3,0.6-0.6,0.9-1c0.2-0.2,0.4-0.5,0.5-0.8c0.1-0.2,0.2-0.4,0.2-0.7l0,0
		c-0.1,0.1-0.3,0.2-0.4,0.3c-0.3,0.3-1.2,0.8-1.8,0.7c-0.2-0.3-0.1-1-0.1-1.4c0-0.9,0.1-1.7,0.3-2.5c0.1-0.2,0.1-0.5,0.2-0.7
		c0-0.1,0-0.1,0-0.2c0.1-0.3,0-0.6-0.3-0.7c-0.3-0.2-0.6-0.5-1-0.4c-0.1,0-0.2,0.1-0.3,0.1c-0.5,0.3-1,0.7-1.4,1.1
		c-0.4,0.3-0.8,0.7-1.1,1c-0.2,0.2-0.8,1-1,1h-0.1c0-0.1,0.1-0.3,0.1-0.4c0.2-0.4,0.3-0.7,0.5-1.1c0-0.1,0.3-0.8,0.4-1.1
		c0.1-0.2,0.5-1.2,0.5-1.5c0.2-0.5,0-1-0.5-1.2C165.8,8.8,165.7,8.7,165.4,8.7z"/>
	<path class="st1" d="M146.9,11c-0.3-0.2-0.6-0.3-0.9-0.4c-0.1,0-0.3,0-0.4,0c-0.1,0.2-0.2,0.5-0.3,0.7c-0.1,0.3-0.3,0.6-0.4,0.8
		c0,0.1-0.1,0.2-0.2,0.3c-0.1,0.1-0.1,0.2-0.2,0.4c-0.1,0.1-0.2,0.3-0.2,0.4c0,0.1-0.1,0.2-0.1,0.2c-0.1,0.1-0.2,0.3-0.2,0.3
		c-0.1,0.1-0.2,0.2-0.2,0.3c0,0-0.4,0.5-0.6,0.7L143,15c-0.1,0.1-0.2,0.2-0.3,0.3c-0.1,0-0.2,0.3-0.3,0.4c-0.2,0.2-0.3,0.5-0.7,0.4
		c0,0,0-0.1-0.1-0.1c0-0.1,0-0.2,0-0.4s0.1-0.4,0.1-0.5s0.1-0.2,0.1-0.3s0-0.2,0.1-0.3c0-0.1,0.1-0.3,0.1-0.4
		c0.1-0.1,0.1-0.2,0.1-0.3c0.2-0.5,0.3-0.9,0.5-1.4c0.3-0.6,0.9-2,0.9-2.1c0.2-0.4,0-0.9-0.4-1.1c-0.1,0-0.2-0.1-0.2-0.1
		c-0.4-0.1-0.8,0-1,0.3c-0.1,0.1-0.1,0.2-0.1,0.4s-0.2,0.4-0.3,0.6c0,0.1-0.1,0.1-0.1,0.2c-0.1,0.3-0.2,0.5-0.3,0.7
		c-0.3,0.7-0.6,1.5-0.8,2.3c-0.1,0.2-0.2,0.5-0.2,0.9c-0.1,0.3-0.2,0.9-0.3,1.1c0,0.1,0,0.3-0.1,0.4c0,0.1,0,0.2,0,0.3
		c0,0.3,0,0.7,0.1,1c0,0.1,0.1,0.3,0.2,0.4c0.2,0.2,0.5,0.2,0.7,0.2s0.4,0,0.5,0c0.4-0.1,0.9-0.7,1-0.7c0.1-0.1,0.6-0.7,0.7-0.8
		c0,0,0.4-0.5,0.5-0.6c0.2-0.2,0.3-0.4,0.5-0.6c0.2-0.3,0.4-0.5,0.6-0.8h0.1c0,0.3,0,0.6-0.1,0.8c0,0.2,0,0.6,0,0.8
		c0,0.3,0,0.7,0.1,1c0.1,0.2,0.2,0.5,0.3,0.7c0.1,0.1,0.2,0.3,0.4,0.4s0.4,0.2,0.6,0.3c0.3,0.1,0.6,0,0.9-0.1c0.8-0.4,1.3-1.1,1.5-2
		c-0.2,0.2-0.4,0.3-0.6,0.5c-0.2,0.1-1,0.4-1.2,0.1c-0.2-0.2-0.1-0.8-0.1-1.1c0.1-1.3,0.4-2.6,0.8-3.9c0-0.1,0-0.2,0-0.2
		C147.3,11.4,147.1,11.2,146.9,11z"/>
	<path class="st1" d="M174.2,9.9h-0.3c-0.1,0-0.2,0.1-0.3,0.2c-0.3,0.3-0.5,1.4-0.6,1.9c-0.2,0.8-0.5,2-0.7,3
		c-0.1,0.4-0.1,0.9-0.1,1.4c0.1,0.9,0.3,1.2,0.7,1.5c0.3,0.2,0.5,0.3,0.8,0.4c0.6,0.1,1.6-0.6,1.9-1.2c0.1-0.3,0.2-0.5,0.3-0.8
		c0-0.1,0.1-0.3,0-0.3h-0.1c-0.3,0.4-0.7,0.7-1.2,0.9c-0.3,0.1-0.6,0.1-0.7-0.2c0-0.4,0.1-0.8,0.2-1.1c0-0.2,0.1-0.5,0.2-0.6
		c0.1-0.3,0.1-0.7,0.2-1c0-0.1,0.2-0.6,0.2-0.7c0.3-0.7,0.4-1.1,0.6-1.8C175.6,10.5,174.9,10,174.2,9.9z"/>
	<path class="st1" d="M156.3,12.8L156.3,12.8L156.3,12.8z"/>
	<path class="st1" d="M126.9,14.8c-0.2,0.6-0.6,2.2-0.2,2.9c0.1,0.2,0.3,0.3,0.4,0.4s0.2,0.1,0.4,0.1c0.5,0.1,1.4-0.4,1.6-0.7
		c0.2-0.3,0.6-0.8,0.8-1c0.1-0.1,0.3-0.4,0.4-0.5c0.1-0.1,0.5-0.7,0.6-0.9c0.2-0.3,0.5-0.6,0.7-0.9c0,0,0.1,0,0.1,0.1
		c-0.1,0.3-0.1,0.7-0.1,1c0,0.5,0,1.1,0.1,1.6c0.1,0.6,0.3,1.2,0.9,1.4c0.4,0.1,0.9,0.1,1.2-0.2c0.5-0.3,0.9-0.6,1.3-1
		c0.1-0.1,0.2-0.2,0.3-0.4c0.2-0.3,0.5-0.5,0.5-0.9c-0.3,0.2-0.6,0.4-0.8,0.5s-1,0.5-1.3,0.3s-0.3-0.7-0.3-1.1c0-0.2,0-0.6,0.1-0.8
		c0-0.3,0.1-0.5,0.2-0.9c0.1-0.5,0.3-1,0.4-1.5c0.1-0.3,0.3-0.8,0.3-0.8c0-0.1,0.1-0.2,0-0.4c-0.1-0.3-0.5-0.5-0.8-0.5
		c-0.8-0.2-1,0.6-1.2,1c-0.2,0.3-0.3,0.6-0.5,0.8c-0.1,0.1-0.2,0.3-0.2,0.4c-0.1,0.1-0.4,0.5-0.5,0.7c-0.4,0.5-1.3,1.8-1.4,1.9
		c-0.2,0.2-0.4,0.5-0.6,0.7c-0.2,0.1-0.4,0.2-0.6,0.3c-0.2,0-0.3-0.2-0.3-0.5c0-0.6,0.5-1.6,0.7-2.2l0.3-0.6
		c0.2-0.4,0.5-0.8,0.8-1.2c0.2-0.2,0.3-0.4,0.5-0.6c0.1-0.1,0.2-0.3,0.4-0.4c0.1-0.1,0.2-0.3,0.4-0.4c0.2-0.2,0.4-0.3,0.6-0.5
		c0.1-0.1,0.3-0.1,0.4-0.2c0.6-0.3,0.9,0,1.2,0.2c0,0,0.1,0.2,0.2,0.2c0.1,0,0.1-0.1,0.1-0.1c0-0.8-0.6-1.6-1.2-1.8
		c-0.5-0.1-1.1,0.2-1.4,0.4c-0.3,0.2-0.6,0.3-0.8,0.5s-0.4,0.3-0.5,0.5c-0.2,0.2-0.4,0.5-0.5,0.5c-0.1,0.2-0.5,0.6-0.6,0.8
		c-0.1,0.1-0.6,0.9-0.9,1.2C127.6,13.1,127.2,13.9,126.9,14.8z"/>
</g>
</svg>
