<?xml version="1.0" encoding="utf-8"?>
<!-- Generator: Adobe Illustrator 24.0.0, SVG Export Plug-In . SVG Version: 6.00 Build 0)  -->
<svg version="1.1" id="Layer_1" xmlns="http://www.w3.org/2000/svg" xmlns:xlink="http://www.w3.org/1999/xlink" x="0px" y="0px"
	 viewBox="0 0 372 55" style="enable-background:new 0 0 372 55;" xml:space="preserve">
<style type="text/css">
	.st0{fill:#FFFFFF;}
</style>
<path class="st0" d="M275.276,44.3412c-0.066,0.3419-0.055,0.6944,0.031,1.0318c-0.01,0.2343,0.053,0.4204,0.053,0.6547
	c-0.019,0.3984,0.024,0.7972,0.126,1.1826c0.1,0.321,0.056,0.5873,0.133,0.9275c0.097,0.3868,0.26,0.7879,0.347,1.165
	c0.268,0.8189,0.7,1.5747,1.269,2.2215s1.263,1.1712,2.04,1.5415c0.35,0.2479,0.711,0.4776,1.084,0.6884
	c0.447,0.1797,1.808,0.4204,2.221,0.0561c0.016-0.0706,0.031-0.1332,0.05-0.1941c-0.394-0.0394-0.772-0.1738-1.103-0.3918
	c-0.33-0.218-0.603-0.5131-0.795-0.8599c-0.067-0.2278-0.28-0.6081-0.346-0.8408c-0.633-1.8708-0.91-3.8439-0.817-5.8169
	c0.053-0.9725,0.08-2.2177,0.11-3.3265c0.137-1.2549,0.161-2.5514,0.321-3.7967c0.151-0.8408,0.096-1.8036,0.34-2.6878
	c0.44-1.6046,0.67-3.2928,1.107-4.8445c0.29-1.1585,0.704-2.2866,1.037-3.4757c0.768-2.1005,1.704-4.5444,2.491-6.6353
	c0.42-0.8647,0.568-1.8371,0.423-2.7879c-0.145-0.9508-0.575-1.8349-1.234-2.5348c-0.441-0.361-1.098-1.1794-1.805-0.7413
	c-0.361,0.4383-0.659,0.9243-0.888,1.4442c-0.202,0.42-0.363,0.8585-0.481,1.3094c-0.213,0.686-0.463,1.3603-0.747,2.0203
	c-0.173,0.4043-0.32,0.9628-0.48,1.4089c-0.223,0.5969-0.395,1.1585-0.685,1.8164c-0.227,0.5184-0.593,2.1006-0.691,2.3076
	c-0.102,0.4637-0.277,0.9323-0.37,1.3992c-0.324,0.9947-0.597,2.0054-0.817,3.028c-0.153,0.4616-0.268,0.935-0.343,1.4154
	c-0.25,1.0622-0.504,2.086-0.765,3.0055c-0.093,0.6707-0.237,1.2228-0.32,1.8903c0,0.1765-0.077,0.6852-0.077,0.8713
	C275.342,39.2925,275.202,41.8177,275.276,44.3412L275.276,44.3412z"/>
<path class="st0" d="M369.547,21.7788c-0.343,0.1605-2.324,0.0193-2.535,0.1974c-0.321,0.2166,0.179,1.7025,0.32,2.086
	c0.427,1.2084,2.292,2.8885,3.799,1.9866c-0.083-0.5172-0.09-1.0438-0.019-1.5629c0.089-0.621,0.533-2.0668-0.13-2.5145
	C370.575,21.7018,370.071,21.8655,369.547,21.7788z"/>
<path class="st0" d="M311.271,25.2565c-0.577,0.183-1.108,0.2471-1.457,0.7911c-0.304,0.6588-0.496,1.3639-0.568,2.0861
	c-0.193,0.8241-0.433,1.6368-0.716,2.4343c-0.028,0.1829-0.191,0.6081-0.217,0.7911c-0.173,0.4445-0.259,0.7542-0.394,1.1922
	c-0.13,0.4044-0.284,1.4186-0.32,1.5229c-0.191,0.438-0.238,0.9788-0.427,1.4923c-0.891,2.4343-1.293,4.798-2.148,7.221
	c-0.169,0.5039-0.16,1.0078-0.293,1.5453c-0.377,1.5357-1.191,3.0489,0.641,3.7967c0.643,0.2505,1.335,0.3445,2.021,0.2744
	c0.994-0.4349,2.121-2.8114,2.695-3.8512c1.04-1.7278,2.169-3.4005,3.382-5.0114c0.102-0.0803,0.333-0.4012,0.44-0.4814
	c0.394-0.4043,0.754-0.8401,1.077-1.303c0.13-0.0899,0.401-0.4702,0.528-0.5681c0.32-0.4701,0.481-0.5873,0.801-1.0382
	c0.173-0.1364,0.457-0.5777,0.62-0.7205c0.344-0.6386,0.818-1.1974,1.392-1.64c0.053,0.0305,0.117,0.0594,0.173,0.0963
	c0.085,0.6811,0.06,1.3717-0.077,2.0444c-0.117,1.1794-0.231,2.3669-0.346,3.5495c-0.087,0.6547-0.077,1.0222-0.17,1.6769
	c0,0.3337-0.1,0.9483-0.1,1.2837c-0.024,0.1605-0.046,0.3209-0.073,0.5007c0.126,1.0719-0.558,2.829,0.049,3.7196
	c1.088,0.7048,2.394,0.99,3.675,0.8023c0.701-0.4541,0.927-1.3158,1.385-2.0106c0.834-1.295,1.755-2.7809,2.658-3.9299
	c0-0.0192,0.176-0.1829,0.16-0.207c0.266-0.3198,0.503-0.663,0.707-1.0253c0.707-1.0752,1.487-2.1679,2.244-3.1885
	c0.274-0.3739,0.907-1.5357,1.474-1.4442c0.234,0.1829,0.17,0.6306,0.124,0.9724c-0.117,0.8713-0.343,2.5113-0.454,3.7164
	c-0.093,0.9821-0.216,2.0861-0.32,3.0649c0.027,0.2969-0.037,0.674-0.013,0.9725c-0.287,3.5302,0.67,7.176,5.177,6.1571
	c0.41-0.0899,0.673,0.1476,1.058,0.0529c0.083-0.0877,0.136-0.2003,0.15-0.3209c-1.304-0.1508-1.808-2.6349-1.801-4.1481
	c-0.037,0.0097,0-0.5584-0.031-0.5536c-0.013-1.0338,0.048-2.0672,0.183-3.0922c-0.019-0.2166,0.143-0.8617,0.127-1.0719
	c0.087-0.4606,0.15-0.9255,0.187-1.3928c0.043-0.4205,0.034-0.9211,0.127-1.3897c0.378-1.762,0.517-3.5669,0.413-5.366
	c-0.12-0.1765-0.243-0.3498-0.37-0.5311c-0.951-0.6322-2.064-0.9755-3.205-0.9885c-0.917,0.223-1.978,1.7266-2.549,2.3669
	c-0.203,0.2198-0.444,0.4974-0.641,0.7349c-1.135,1.4731-2.996,3.5303-4.092,5.1349c-0.097,0.1434-0.204,0.2796-0.321,0.4076
	c-0.409,0.4482-0.779,0.9314-1.104,1.4442l-0.03-0.0497c-0.183-0.1605-0.074-0.6082-0.103-0.9179
	c-0.006-0.7434,0.071-1.4852,0.231-2.2112c0.26-1.6047,0.522-3.2094,0.787-4.814c0.156-0.6107,0.256-1.2343,0.3-1.863
	c0.001-0.1243-0.009-0.2484-0.031-0.3707c-0.107-0.2038-0.21-0.4012-0.32-0.597c-0.451-0.621-2.706-1.9063-3.725-1.4698
	c-0.475,0.2564-0.889,0.6128-1.214,1.0446c-0.073,0.0642-0.19,0.207-0.263,0.2808c-0.62,0.6419-1.404,1.6288-2.051,2.4584
	c-0.438,0.5472-0.821,0.8344-1.305,1.4362c-0.16,0.1877-0.481,0.4412-0.67,0.698c-0.303,0.4044-1.282,1.5758-1.774,2.1599
	c-0.153,0.2392-0.346,0.4503-0.571,0.6242h-0.246c-0.058-0.0966-0.076-0.2116-0.05-0.3209c0.076-0.7806,0.248-1.5487,0.513-2.2867
	c0.104-0.5183,0.25-0.9419,0.351-1.4667c0.62-1.7057,1.234-3.259,1.704-4.9985c0.191-0.4611,0.257-0.9645,0.193-1.4595
	c-0.065-0.495-0.259-0.9642-0.563-1.3604c-0.303-0.3961-0.706-0.7052-1.166-0.8961C312.268,25.257,311.765,25.191,311.271,25.2565
	L311.271,25.2565z"/>
<path class="st0" d="M345.105,25.6918c-0.238,0.0241-0.467,0.0498-0.694,0.077c-0.39,0.0899-0.739,0.3073-0.991,0.6178
	c-0.316,0.692-0.58,1.4064-0.79,2.1374c-0.247,0.7783-0.491,1.8005-0.734,2.5515c-0.911,2.821-1.698,4.6712-2.598,7.4601
	c-0.18,0.5712-0.401,1.1489-0.571,1.6656c-0.068,0.342-0.175,0.6748-0.321,0.9917c-0.021,0.1976-0.07,0.3912-0.147,0.5745
	c-0.17,0.4172-0.641,2.3781-0.765,2.6878c-0.231,0.7488-0.355,1.5269-0.367,2.3107c0.052,0.2684,0.179,0.5163,0.367,0.7141
	c0.177,0.223,0.481,0.284,0.711,0.4669c0.464,0.2852,0.952,0.5279,1.46,0.7254c0.12,0.0433,0.222,0,0.266,0.0497
	c1.401-0.1204,2.181-2.5819,2.838-3.6763c0.967-1.6116,2.03-3.163,3.185-4.6455c0.136-0.1797,0.757-1.0655,0.987-1.2918
	c0.481-0.6274,1.031-1.1794,1.552-1.7651c0.724-0.8248,1.524-1.8197,2.271-2.0139c0.21,0,0.293,0.1509,0.343,0.321
	c-0.114,2.4712-0.641,5.3066-0.55,7.7136c0.031,0.8842,0,1.4442,0,1.8727c0.013,0.6113,0.114,1.1056,0.13,1.717
	c0.111,0.8205,0.354,1.6176,0.72,2.3604c0.16,0.2375,0.561,0.5215,0.561,0.5745c0.897,0.4079,1.895,0.5424,2.869,0.3867
	c0.625-0.3116,1.199-0.7181,1.7-1.2051c0.813-0.6884,1.545-1.4656,2.185-2.3171c0.507-0.5716,0.904-1.2327,1.17-1.9497
	c0.275-0.4918,0.429-1.0417,0.45-1.6047l-0.053,0.0241c-0.173,0.3643-0.641,0.5777-0.916,0.8441
	c-1.154,1.0863-2.687,1.6753-4.27,1.6399c-0.529-0.759-0.209-2.3412-0.209-3.381c-0.038-2.0855,0.246-4.1644,0.84-6.1635
	c0.125-0.5652,0.29-1.1208,0.494-1.6625c0.024-0.1604,0.046-0.3113,0.07-0.4701c0.145-0.323,0.159-0.6894,0.039-1.0223
	c-0.119-0.333-0.363-0.6067-0.68-0.7637c-0.315-0.3247-0.7-0.5728-1.125-0.7255c-0.426-0.1527-0.881-0.2059-1.33-0.1555
	c-0.234,0.0273-0.481,0.1878-0.725,0.2134c-1.21,0.778-2.338,1.6776-3.365,2.6846c-0.901,0.7828-1.762,1.6108-2.579,2.4809
	c-0.364,0.4075-1.962,2.354-2.438,2.3813c-0.084-0.0273-0.16-0.0594-0.247-0.0931c0.03-0.2375,0.179-0.6579,0.21-0.8842
	c0.377-1.0125,0.78-1.7426,1.148-2.7279c0.064-0.26,0.801-2.0363,1.033-2.5883c0.21-0.5007,1.122-2.9959,1.308-3.6234
	c0.186-0.5467,0.172-1.1417-0.04-1.6787c-0.212-0.537-0.608-0.9811-1.117-1.253C346.002,26.0208,345.758,25.6709,345.105,25.6918z"
	/>
<path class="st0" d="M300.58,31.3413c-0.63-0.46-1.341-0.7975-2.095-0.9948c-0.337,0-0.674,0.0247-1.007,0.0738
	c-0.182,0.5855-0.418,1.1528-0.705,1.6945c-0.281,0.6772-0.71,1.3928-0.901,1.8598c-0.088,0.2418-0.214,0.4681-0.373,0.6708
	c-0.142,0.2993-0.302,0.5893-0.481,0.8681c-0.175,0.3161-0.366,0.6225-0.574,0.9178c-0.093,0.2052-0.211,0.3982-0.351,0.5745
	c-0.223,0.191-0.518,0.6772-0.574,0.6981c-0.201,0.2574-0.388,0.5252-0.561,0.8023c-0.117,0.0834-1.011,1.2661-1.391,1.786
	c-0.096,0.1396-0.38,0.5247-0.457,0.6306c-0.197,0.2982-0.42,0.5785-0.667,0.8377c-0.147,0.1107-0.54,0.6418-0.801,0.8488
	c-0.441,0.491-0.837,1.165-1.755,0.9387c-0.053-0.0706-0.114-0.1331-0.176-0.2037c0.013-0.2809,0.019-0.5649,0.033-0.8409
	c0.037-0.4286,0.12-0.8521,0.247-1.2629c0.027-0.2278,0.188-0.5809,0.21-0.8023c0.046-0.237,0.106-0.4712,0.18-0.7012
	c0.086-0.2472,0.19-0.7478,0.274-1.0158c0.112-0.2286,0.194-0.4708,0.243-0.7205c0.481-1.1088,0.771-2.2144,1.308-3.296
	c0.738-1.4859,2.244-4.9151,2.244-5.0755c0.137-0.2929,0.204-0.6138,0.195-0.937c-0.01-0.3233-0.094-0.6399-0.247-0.9245
	c-0.154-0.2847-0.371-0.5294-0.636-0.7147c-0.265-0.1853-0.569-0.306-0.889-0.3524c-0.435-0.1333-0.9-0.1256-1.33,0.0219
	c-0.43,0.1476-0.803,0.4275-1.065,0.7997c-0.16,0.2873-0.126,0.5071-0.299,0.865c-0.161,0.3209-0.447,0.844-0.688,1.4153
	c-0.053,0.1364-0.117,0.2631-0.197,0.4268c-0.306,0.6082-0.481,1.2324-0.737,1.8133c-0.809,1.8105-1.486,3.6773-2.025,5.5858
	c-0.129,0.4172-0.389,1.3255-0.593,2.0861c-0.179,0.6306-0.543,2.2337-0.614,2.752c-0.046,0.284-0.092,0.674-0.15,0.9179
	c0.009,0.207-0.056,0.4477-0.047,0.6547c-0.066,0.8329,0.043,1.6705,0.321,2.4583c0.108,0.3555,0.312,0.6742,0.59,0.9211
	c0.491,0.3682,1.086,0.5725,1.7,0.5841c0.412,0.1042,0.842,0.1147,1.258,0.0305c0.862-0.4659,1.639-1.0734,2.299-1.7972
	c0.136-0.2311,1.431-1.6801,1.62-1.9256c0.04-0.053,0.911-1.1891,1.178-1.5662c0.385-0.5431,0.798-1.0659,1.238-1.5661
	c0.509-0.6612,0.87-1.2019,1.431-1.9128c0.101-0.0212,0.205-0.0034,0.293,0.0497c0.016,0.675-0.038,1.3498-0.16,2.0139
	c-0.01,0.5408-0.114,1.3624-0.12,1.8967c-0.087,0.827-0.04,1.6625,0.139,2.4744c0.149,0.5949,0.385,1.1643,0.701,1.6897
	c0.232,0.3537,0.531,0.6589,0.88,0.8986c0.479,0.3273,1.001,0.586,1.551,0.7687c0.7,0.1283,1.421,0.0589,2.084-0.2006
	c0.938-0.4619,1.753-1.1427,2.374-1.9852c0.621-0.8424,1.031-1.822,1.195-2.8561c-0.474,0.4376-0.975,0.8449-1.5,1.2196
	c-0.521,0.2744-2.332,0.9323-2.818,0.223c-0.302-0.8625-0.357-1.7922-0.16-2.6846c0.352-3.182,1.03-6.3195,2.021-9.3632
	c0.099-0.2006,0.059-0.5007,0.1-0.5344c0.005-0.2982-0.062-0.5933-0.195-0.8602C301.015,31.7482,300.82,31.5171,300.58,31.3413
	L300.58,31.3413z"/>
<path class="st0" d="M366.199,28.7393c-0.25,0.0128-0.496,0.0337-0.743,0.0465c-0.272,0.0898-0.518,0.2446-0.717,0.4509
	c-0.736,1.4578-1.259,3.0143-1.551,4.6214c-0.593,1.993-1.181,4.8445-1.648,7.1793c-0.19,1.0852-0.287,2.1847-0.29,3.2864
	c-0.034,0.6963,0.091,1.3912,0.365,2.0322c0.274,0.641,0.689,1.2114,1.215,1.6681c0.599,0.3758,1.254,0.6511,1.941,0.8152
	c1.501,0.3611,3.86-1.4699,4.463-2.9044c0.31-0.6478,0.566-1.3203,0.764-2.0107c0.059-0.2567,0.183-0.6852,0-0.8184l-0.17-0.0497
	c-0.739,0.9961-1.737,1.7698-2.885,2.2369c-0.691,0.2808-1.49,0.1942-1.651-0.5215c0.033-0.9194,0.183-1.8307,0.447-2.7119
	c0.111-0.4637,0.294-1.0992,0.42-1.5902c0.217-0.8409,0.364-1.6047,0.597-2.407c0.059-0.2712,0.543-1.4988,0.604-1.7652
	c0.676-1.6592,0.987-2.7488,1.534-4.2604C369.544,30.1674,367.876,28.8259,366.199,28.7393z"/>
<path class="st0" d="M252.258,40.4719c-0.513,1.5935-1.544,5.3596-0.398,6.9851c0.269,0.3789,0.634,0.6787,1.058,0.8682
	c0.27,0.1334,0.553,0.2408,0.843,0.3209c1.462-0.0139,2.863-0.5929,3.909-1.6159c0.524-0.5777,1.571-1.863,1.985-2.4311
	c0.12-0.231,0.684-1.0013,0.883-1.2725c0.271-0.3642,1.324-1.7892,1.554-2.1374c0.495-0.8005,1.086-1.5377,1.759-2.1952
	c0.08,0.0434,0.253,0.0241,0.32,0.2102c-0.143,0.842-0.234,1.6919-0.274,2.545c-0.021,1.301,0.036,2.602,0.17,3.8962
	c0.231,1.5389,0.784,2.9991,2.129,3.3265c0.485,0.1729,1.005,0.2217,1.514,0.1418c0.508-0.0799,0.989-0.2858,1.398-0.5992
	c1.166-0.6081,2.228-1.3972,3.148-2.338c0.301-0.2582,0.57-0.5518,0.801-0.8745c0.62-0.6039,1.011-1.404,1.108-2.2642
	c-0.641,0.3867-1.505,0.9451-2.049,1.1923c-0.503,0.223-2.404,1.1232-3.045,0.6418c-0.688-0.507-0.641-1.7234-0.62-2.6685
	c0.009-0.4237,0.067-1.3833,0.123-1.8534c0.083-0.6772,0.213-1.3223,0.383-2.1407c0.234-1.1393,0.651-2.407,0.981-3.5463
	c0.231-0.828,0.641-1.9769,0.641-1.9833c0.091-0.2821,0.122-0.5798,0.093-0.8746c-0.16-0.7879-1.095-1.1088-1.87-1.2949
	c-1.858-0.4381-2.358,1.4121-2.905,2.3668c-0.389,0.6547-0.811,1.3752-1.267,2.0107c-0.127,0.1701-0.481,0.7783-0.544,0.8842
	c-0.13,0.2744-0.993,1.335-1.203,1.6463c-0.92,1.2838-3.206,4.2636-3.382,4.5172c-0.395,0.6015-0.855,1.1579-1.371,1.6592
	c-0.36,0.3702-0.838,0.6038-1.351,0.6611c-0.57,0.0434-0.673-0.5102-0.673-1.1232c0.307-1.8271,0.915-3.5905,1.798-5.2184
	c0.044-0.0802,0.821-1.5565,0.821-1.5565c0.546-0.8746,1.09-1.8695,1.838-2.9125c0.374-0.5247,0.667-0.8778,1.098-1.3993
	c0.26-0.3305,0.577-0.6418,0.843-0.9628c0.286-0.3202,0.595-0.6195,0.924-0.8954c0.46-0.4334,0.948-0.837,1.46-1.2083
	c0.16-0.1203,0.673-0.3643,0.99-0.5344c0.485-0.2393,1.033-0.3165,1.564-0.2203c0.532,0.0962,1.019,0.3608,1.389,0.7547
	c0.059,0.1139,0.351,0.4381,0.403,0.5504c0.14-0.0273,0.217-0.207,0.294-0.2808c0.028-0.9205-0.233-1.8266-0.746-2.5908
	c-0.514-0.7643-1.253-1.3482-2.115-1.6696c-1.228-0.0868-2.448,0.2502-3.457,0.9548c-0.694,0.3708-1.355,0.8003-1.975,1.2837
	c-0.467,0.378-0.913,0.7825-1.334,1.2115c-0.4,0.398-0.961,1.1024-1.094,1.2116c-0.321,0.43-1.204,1.4762-1.497,1.8662
	c-0.14,0.1235-1.491,2.1165-2.074,3.0023C254.081,36.4175,253.085,38.4087,252.258,40.4719L252.258,40.4719z"/>
<path class="st0" d="M60.5056,49.173c-8.1842,0-8.806-6.2426-8.806-8.1916c-0.0859-1.8172,0.4384-3.6106,1.4888-5.0929
	s2.5661-2.5676,4.3041-3.0819c5.3792-1.9914,6.5328-2.223,10.2324-3.3896v-0.9887c0.0993-1.1354-0.024-2.2793-0.3629-3.367
	c-0.4204-1.101-1.1851-2.0354-2.1794-2.6629c-0.9943-0.6275-2.1645-0.9143-3.3349-0.8172
	c-1.2684-0.0232-2.5166,0.3209-3.5953,0.9911c-1.0787,0.6703-1.9422,1.6383-2.4874,2.7884l-1.5108-0.8983
	c0.7081-2.134,2.1072-3.9686,3.9744-5.2116c1.8671-1.2429,4.0949-1.8227,6.3284-1.6468c1.6453-0.197,3.3132,0.0517,4.8305,0.7202
	c1.5173,0.6686,2.8288,1.7327,3.7983,3.0819c1.161,2.4569,1.6466,5.1807,1.4067,7.8894c0,2.627-0.0872,5.5308-0.1351,7.8894
	c-0.0422,1.6271-0.0815,3.0168-0.0815,3.8925c0,2.1327,0.346,3.7908,2.1128,3.7908c0.7259,0,0.8441-0.2006,1.4996-0.7062
	l0.9538,1.1299c-0.6455,1.1145-1.5585,2.049-2.6558,2.7185c-1.0973,0.6696-2.3441,1.0527-3.6266,1.1146
	c-1.003,0.0961-2.0082-0.1596-2.8448-0.7234c-0.8365-0.5639-1.4527-1.4012-1.7439-2.3696c-0.9757,1.0209-2.1519,1.8273-3.4542,2.368
	C63.3145,48.9407,61.9146,49.204,60.5056,49.173L60.5056,49.173z M67.7249,33.1851c-2.2868,0.6083-4.5037,1.4556-6.6144,2.5282
	c-0.8511,0.4567-1.5528,1.1503-2.0209,1.9976c-0.4681,0.8473-0.6827,1.8122-0.6181,2.779
	c-0.0611,0.6038,0.0144,1.2136,0.2206,1.7841c0.2063,0.5705,0.5382,1.0869,0.9709,1.5107c0.4326,0.4238,0.955,0.7442,1.5281,0.9371
	c0.5731,0.193,1.1822,0.2537,1.7819,0.1774c1.6903,0.0323,3.349-0.461,4.7491-1.4123L67.7249,33.1851z M0.2335,47.5262
	c0-3.062,0-5.6494-0.2335-8.7877h1.7922c-0.0728,1.5607,0.4199,3.095,1.387,4.319c1.9515,1.6363,4.4467,2.4717,6.9857,2.3389
	c5.731,0,8.4066-2.192,8.4066-6.9121c0-4.0337-2.4646-5.7144-5.9082-8.0476l-0.5205-0.3644l-3.6012-2.4264
	c-5.022-3.3501-7.5822-6.0364-7.5822-11.4091c0-2.6156,0.9847-11.1802,13.617-11.1802c3.3162,0.01,6.6265,0.281,9.9004,0.8107
	c-0.0225,0.4124-0.0703,2.3699-0.0703,4.0139c0,1.9208,0,2.5423,0.0703,4.8896h-1.5276c0.0852-1.5704-0.4519-3.1109-1.494-4.2851
	c-1.9775-1.3611-4.3633-1.9929-6.7522-1.788c-6.6847,0-7.4753,3.4631-7.4753,6.0731c0,3.5846,1.8147,4.802,5.7788,7.4544
	l4.5831,3.0451c3.8938,2.627,7.5568,5.0845,7.5568,11.6152c0,11.0334-10.1761,12.2198-14.5538,12.2198
	C7.0757,49.1673,3.5736,48.6335,0.2335,47.5262L0.2335,47.5262z M81.6345,19.6237c2.0391,0.0884,4.0816-0.0556,6.0883-0.4294
	c1.4071-0.1877,2.7669-0.638,4.0091-1.3276l0.5908,0.3587v2.435c2.5283-1.8921,5.5937-2.9216,8.7473-2.9378
	c5.421,0,8.969,2.5621,9.982,7.2228c0.282,1.7983,0.413,3.6173,0.391,5.4376v8.8809c0,5.0252,0.2,6.4234,1.125,7.3189
	c0.85,0.6141,1.879,0.9279,2.926,0.8926v1.4124c-1.933-0.0876-5.373-0.2825-7.447-0.2825c-2.763,0-5.872,0.1356-7.551,0.3305
	v-1.3926c1.103-0.0418,2.166-0.43,3.038-1.1101c0.878-0.887,1.024-2.644,1.143-6.4234c0.033-1.1299,0.075-3.5083,0.075-5.2681
	c0.042-2.3193-0.045-4.6391-0.258-6.9488c0.013-0.8176-0.149-1.6285-0.475-2.3779c-0.326-0.7494-0.808-1.42-1.414-1.9664
	c-0.605-0.5465-1.321-0.9561-2.098-1.2012c-0.7769-0.2451-1.5972-0.3201-2.4055-0.2198c-1.9517-0.0563-3.8863,0.3798-5.6268,1.2683
	v15.9823c0,5.0251,0.1885,6.4234,1.1478,7.3188c0.8442,0.6091,1.8644,0.9227,2.9035,0.8926v1.4124
	c-2.5068-0.1243-5.4918-0.2825-7.419-0.2825c-2.5365-0.0536-5.0739,0.0568-7.5963,0.3305v-1.4463
	c0.6056,0.0184,1.2086-0.0874,1.7721-0.3108s1.0758-0.5598,1.5056-0.9885c0.9143-1.0395,0.979-3.6439,0.979-8.816v-8.7312
	c0.2629-2.0826,0.0552-4.1979-0.6077-6.1889c-0.4107-0.6243-1.4348-1.1299-3.5139-1.0988L81.6345,19.6237z M119.076,47.433
	c0.602,0.0234,1.203-0.079,1.765-0.3007c0.561-0.2217,1.07-0.5579,1.495-0.9874c0.937-1.0507,1.002-3.6269,1.002-8.7989V22.2563
	h-3.939v-1.7174c1.4-0.5021,2.725-1.194,3.939-2.0564c-0.058-2.6938,0.09-5.3881,0.445-8.0589
	c1.153-6.2653,5.247-9.4685,12.066-9.4685c2.746-0.056,5.428,0.8365,7.597,2.5281l0.112,0.6412l-2.996,4.1806l-0.726,0.017
	c-0.309-1.1546-0.993-2.1726-1.943-2.8925c-0.951-0.72-2.114-1.1007-3.304-1.0818c-1.115-0.0251-2.2,0.3665-3.044,1.0988
	c-1.283,1.305-1.522,3.2682-1.522,7.1522v5.8726h6.752v3.7851h-6.752V39.134c-0.253,2.2748-0.027,4.5775,0.661,6.7596
	c0.844,1.2683,3.489,1.4123,4.783,1.3756v1.6044c-2.209-0.1356-5.65-0.2824-8.216-0.2824c-2.732-0.0368-5.464,0.0735-8.184,0.3304
	L119.076,47.433z M153.74,49.4329c-9.197,0-14.689-5.7906-14.689-15.471c0-7.5363,4.018-16.3042,15.322-16.3042
	c9.203,0,14.683,5.7709,14.683,15.471c0,7.5024-4.017,16.3014-15.316,16.3014V49.4329z M154.128,21.1688
	c-1.547-0.0758-3.069,0.4128-4.285,1.3756c-2.405,2.0621-3.635,5.7709-3.635,11.0814c0,2.0507,0.391,12.2791,7.799,12.2791
	c1.535,0.0858,3.046-0.4046,4.24-1.3757c2.448-2.0451,3.677-5.785,3.677-11.0927C161.913,31.4084,161.522,21.1688,154.128,21.1688z
	 M172.095,19.5107c2.211,0.0723,4.423-0.1116,6.592-0.548c1.23-0.1845,2.432-0.5263,3.576-1.0169l0.545,0.2825v2.6326
	c1.865-1.8127,4.359-2.8257,6.955-2.8247c0.955-0.0536,1.912,0.0852,2.813,0.4083s1.729,0.8239,2.434,1.4729v0.9576l-2.532,4.7032
	h-1.241c-0.493-0.8847-1.225-1.6119-2.111-2.0984c-0.886-0.4866-1.891-0.7128-2.899-0.6529c-1.175-0.0294-2.329,0.3093-3.303,0.9689
	V39.134c-0.256,2.2507-0.035,4.5303,0.65,6.6889c0.844,1.2881,3.342,1.4124,4.782,1.37v1.6949
	c-2.067-0.113-5.626-0.2825-8.195-0.2825c-2.736-0.0381-5.472,0.0722-8.196,0.3305v-1.5339c0.606,0.0203,1.209-0.0865,1.771-0.3137
	c0.562-0.2271,1.07-0.5696,1.493-1.0054c0.926-1.0706,0.985-3.562,0.985-8.734v-8.6917c0-3.7738-0.034-5.3952-0.602-6.1889
	c-0.493-0.6751-1.587-1.0762-3.531-1.0988L172.095,19.5107z M214.493,2.7177c2.377-0.0873,4.743-0.3707,7.073-0.8474
	c1.117-0.1655,2.216-0.4331,3.283-0.7994l0.521,0.3107c-0.265,2.5112-0.265,8.1634-0.265,12.1746v24.8123
	c-0.236,2.2644-0.037,4.5534,0.586,6.7426c0.475,0.6864,1.586,1.1525,3.477,1.1525v1.627c-2.17,0.0407-4.334,0.2513-6.471,0.6299
	c-1.149,0.1292-2.275,0.4143-3.348,0.8475l-0.807-0.2825v-2.5677c-2.434,1.8272-5.387,2.8231-8.427,2.8417
	c-8.271,0-13.605-5.7907-13.605-14.7648c-0.029-2.8125,0.519-5.6007,1.609-8.1917c1.271-2.7179,3.319-4.9947,5.882-6.5409
	c2.564-1.5462,5.527-2.2919,8.514-2.1423c1.976-0.0033,3.947,0.1935,5.883,0.5876v-6.4828c0.251-2.2261,0.046-4.4801-0.602-6.6239
	c-0.422-0.6299-1.041-0.935-3.303-1.0988V2.7177z M213.438,45.0038c1.738,0.0847,3.463-0.3445,4.96-1.2344V23.3919
	c-1.669-1.4421-3.834-2.172-6.032-2.0338c-5.871,0-8.721,4.0562-8.721,12.392c0.016,3.5083,1.052,11.2537,9.788,11.2537H213.438z
	 M48.6808,45.8681c-1.0014,1.1705-2.2591,2.0922-3.6746,2.693c-1.4156,0.6008-2.9504,0.8644-4.4844,0.7701
	c-4.6646,0-7.2642-1.6694-8.3952-5.4375c-0.3985-2.0392-0.5553-4.1185-0.4671-6.1947c0-4.8726,0.0479-8.7566,0.0985-13.2761v-2.1157
	h-3.9529v-1.1864c1.356-0.5086,2.6287-1.2179,3.7757-2.1044c2.3556-2.0223,4.2661-4.5148,5.6099-7.3189h1.328v6.8161h10.2268v3.7794
	H38.5102v15.9823c0,4.7738,0.8441,7.4883,5.3231,7.4883c1.5227,0.0043,3.0202-0.3911,4.3439-1.1468L48.6808,45.8681z"/>
<path class="st0" d="M239.966,0h-1.52v51.0568h1.52V0z"/>
</svg>
