<?xml version="1.0" encoding="utf-8"?>
<!-- Generator: Adobe Illustrator 24.0.0, SVG Export Plug-In . SVG Version: 6.00 Build 0)  -->
<svg version="1.1" id="Layer_1" xmlns="http://www.w3.org/2000/svg" xmlns:xlink="http://www.w3.org/1999/xlink" x="0px" y="0px"
	 viewBox="0 0 177 24" style="enable-background:new 0 0 177 24;" xml:space="preserve">
<style type="text/css">
	.st0{fill:#FFFFFF;}
	.st1{fill-rule:evenodd;clip-rule:evenodd;fill:#FFFFFF;}
</style>
<g>
	<path class="st0" d="M30.5,21.9c-4.1,0-4.4-2.8-4.4-3.7c0-0.8,0.2-1.6,0.8-2.3c0.5-0.7,1.3-1.2,2.2-1.4c2.7-0.9,3.3-1,5.2-1.5v-0.4
		c0-0.5,0-1-0.2-1.5c-0.2-0.5-0.6-0.9-1.1-1.2c-0.5-0.3-1.1-0.4-1.7-0.4c-0.6,0-1.3,0.1-1.8,0.4c-0.5,0.3-1,0.7-1.3,1.3l-0.8-0.4
		c0.5-1.6,2.2-3.1,5.2-3.1c2.1,0,3.5,0.5,4.4,1.7c0.6,0.9,0.7,2.2,0.7,3.6c0,1.2,0,2.5-0.1,3.6c0,0.7,0,1.4,0,1.8
		c0,1,0.2,1.7,1.1,1.7c0.4,0,0.4-0.1,0.8-0.3l0.5,0.5c-0.8,0.9-1.7,1.7-3.2,1.7c-0.5,0-1-0.1-1.4-0.3c-0.4-0.3-0.7-0.6-0.9-1.1
		c-0.5,0.5-1.1,0.8-1.7,1.1C31.9,21.8,31.2,21.9,30.5,21.9z M34.1,14.6c-1.1,0.3-2.3,0.7-3.3,1.1c-0.4,0.2-0.8,0.5-1,0.9
		c-0.2,0.4-0.3,0.8-0.3,1.3c0,0.8,0.3,2,2.3,2c0.8,0,1.7-0.2,2.4-0.6L34.1,14.6z M0.1,21.2c0-1.4,0-2.6-0.1-4h0.9
		c0,0.7,0.2,1.4,0.7,2c0.6,0.7,2.1,1.1,3.5,1.1c2.9,0,4.2-1,4.2-3.1c0-1.8-1.2-2.6-3-3.7l-0.3-0.2l-1.8-1.1
		c-2.5-1.5-3.8-2.8-3.8-5.2c0-1.2,0.5-5.1,6.9-5.1c1.7,0,3.3,0.1,5,0.4c0,0.2,0,1.1,0,1.8c0,0.9,0,1.2,0,2.2h-0.8c0-0.4,0-0.7-0.2-1
		c-0.1-0.3-0.3-0.6-0.6-0.9c-0.6-0.6-2-0.8-3.4-0.8c-3.4,0-3.8,1.6-3.8,2.8c0,1.6,0.9,2.2,2.9,3.4L8.9,11c2,1.2,3.8,2.3,3.8,5.3
		c0,5-5.1,5.5-7.3,5.5C3.6,21.9,1.8,21.6,0.1,21.2L0.1,21.2z M41.1,8.5c1,0,2.1,0,3.1-0.2c0.7-0.1,1.4-0.3,2-0.6l0.3,0.2v1.1
		c1.3-0.9,2.8-1.3,4.4-1.3c2.7,0,4.5,1.2,5,3.3c0.2,0.8,0.2,1.6,0.2,2.5v4c0,2.3,0.1,2.9,0.6,3.3c0.4,0.3,0.9,0.4,1.5,0.4v0.6
		c-1,0-2.7-0.1-3.8-0.1c-1.4,0-3,0.1-3.8,0.1v-0.6c0.6,0,1.1-0.2,1.5-0.5c0.4-0.4,0.5-1.2,0.6-2.9c0-0.5,0-1.6,0-2.4
		c0-1.1,0-2.1-0.1-3.2c-0.2-1.8-1.3-2.6-3.2-2.6c-1,0-2,0.2-2.8,0.6v7.2c0,2.3,0.1,2.9,0.6,3.3c0.4,0.3,0.9,0.4,1.5,0.4v0.6
		c-1.2-0.1-2.8-0.1-3.7-0.1c-1.3,0-2.5,0-3.8,0.1v-0.7c0.3,0,0.6,0,0.9-0.1c0.3-0.1,0.5-0.2,0.8-0.4c0.5-0.5,0.5-1.6,0.5-4v-4
		c0-1.7,0-2.4-0.3-2.8c-0.3-0.4-0.7-0.5-1.8-0.5L41.1,8.5z M60,21.1c0.3,0,0.6,0,0.9-0.1c0.3-0.1,0.5-0.3,0.8-0.5
		c0.5-0.5,0.5-1.6,0.5-4V9.7h-2V8.9c0.7-0.2,1.3-0.5,2-0.9c0-1.2,0-2.4,0.2-3.7C63,1.4,65,0,68.4,0c1.4,0,2.7,0.4,3.8,1.2l0.1,0.3
		l-1.5,1.9h-0.4c-0.5-1.2-1.3-1.8-2.7-1.8c-0.6,0-1.1,0.2-1.5,0.5c-0.7,0.6-0.8,1.5-0.8,3.2V8h3.4v1.7h-3.4v7.7
		c0,1.8,0.1,2.7,0.3,3.1c0.4,0.6,1.8,0.6,2.4,0.6v0.7c-1.1-0.1-2.8-0.1-4.1-0.1c-1.4,0-2.8,0-4.1,0.2L60,21.1z M77.5,22
		c-4.6,0-7.4-2.6-7.4-7c0-3.4,2-7.4,7.7-7.4c4.6,0,7.4,2.6,7.4,7C85.2,18,83.2,22,77.5,22z M77.7,9.2c-0.8,0-1.5,0.2-2.2,0.6
		c-1.2,0.9-1.8,2.6-1.8,5c0,0.9,0.2,5.6,3.9,5.6c0.8,0,1.5-0.2,2.1-0.6c1.2-0.9,1.8-2.6,1.8-5C81.6,13.8,81.4,9.2,77.7,9.2L77.7,9.2
		z M86.7,8.4c1.1,0,2.2,0,3.3-0.2c0.6-0.1,1.2-0.2,1.8-0.5l0.3,0.1V9c0.9-0.8,2.2-1.3,3.5-1.3c0.5,0,1,0,1.4,0.2
		c0.5,0.2,0.9,0.4,1.2,0.7V9l-1.3,2.1h-0.6c-0.2-0.4-0.6-0.7-1.1-0.9c-0.5-0.2-1-0.3-1.5-0.3c-0.6,0-1.2,0.1-1.7,0.4v7
		c0,1.8,0.1,2.7,0.3,3c0.4,0.6,1.7,0.6,2.4,0.6v0.8c-1,0-2.8-0.1-4.1-0.1c-1.4,0-2.8,0-4.1,0.1v-0.7c0.3,0,0.6,0,0.9-0.1
		s0.5-0.3,0.8-0.5c0.5-0.5,0.5-1.6,0.5-4v-4c0-1.7,0-2.4-0.3-2.8c-0.3-0.4-0.8-0.5-1.8-0.5L86.7,8.4z M108.1,0.8
		c1.2,0,2.4-0.2,3.6-0.4c0.6-0.1,1.1-0.2,1.7-0.4l0.3,0.1c-0.1,1.1-0.1,3.7-0.1,5.5V17c0,1.7,0,2.7,0.3,3.1s0.8,0.5,1.8,0.5v0.7
		c-1.1,0-2.2,0.1-3.3,0.3c-0.6,0.1-1.1,0.2-1.7,0.4l-0.4-0.1v-1.2c-1.2,0.8-2.7,1.3-4.2,1.3c-4.2,0-6.9-2.6-6.9-6.7
		c0-1.3,0.3-2.5,0.8-3.7c1.3-2.5,3.9-3.9,7.3-3.9c1,0,2,0.1,3,0.3v-3c0-1.7,0-2.6-0.3-3c-0.3-0.4-0.5-0.4-1.7-0.5L108.1,0.8
		L108.1,0.8z M107.6,20c0.9,0,1.7-0.1,2.5-0.6v-9.2c-0.8-0.7-1.9-1-3-0.9c-3,0-4.4,1.8-4.4,5.6C102.6,16.5,103.1,20,107.6,20
		L107.6,20z M24.5,20.4c-0.5,0.5-1.1,1-1.9,1.2C22,21.9,21.2,22,20.4,22c-2.3,0-3.6-0.8-4.2-2.5c-0.2-0.9-0.3-1.9-0.2-2.8
		c0-2.2,0-4,0.1-6v-1h-2V9.1c0.7-0.2,1.3-0.6,1.9-1c1.2-0.9,2.2-2,2.8-3.3h0.6V8h5.2v1.7h-5.2v7.3c0,2.2,0.4,3.4,2.7,3.4
		c0.8,0,1.5-0.2,2.2-0.5L24.5,20.4z"/>
	<path class="st0" d="M120.2,0.7v22.4h1V0.7"/>
	<path class="st1" d="M136.6,15.6c0,0.1,0,0.3,0,0.4c0,0.1,0,0.2,0,0.2c0,0.1,0,0.3,0.1,0.4c0,0.1,0,0.2,0.1,0.3
		c0,0.1,0.1,0.3,0.2,0.4c0.1,0.3,0.3,0.6,0.5,0.8c0.2,0.2,0.5,0.4,0.8,0.6c0.1,0.1,0.3,0.2,0.4,0.3c0.2,0.1,0.8,0.1,0.9,0l0-0.1
		c-0.2,0-0.3-0.1-0.5-0.1s-0.2-0.2-0.3-0.3c0-0.1-0.1-0.2-0.1-0.3c-0.3-0.7-0.4-1.4-0.3-2.1c0-0.4,0-0.8,0-1.2
		c0.1-0.5,0.1-0.9,0.1-1.4c0.1-0.3,0-0.7,0.1-1c0.2-0.6,0.3-1.2,0.5-1.8c0.1-0.4,0.3-0.8,0.4-1.3c0.3-0.8,0.7-1.7,1-2.5
		c0.3-0.7,0.2-1.5-0.3-2c-0.2-0.1-0.5-0.4-0.8-0.3c-0.1,0.2-0.3,0.3-0.4,0.5c-0.1,0.2-0.1,0.3-0.2,0.5c-0.1,0.2-0.2,0.5-0.3,0.7
		c-0.1,0.2-0.1,0.4-0.2,0.5c-0.1,0.2-0.2,0.4-0.3,0.7c-0.1,0.2-0.2,0.8-0.3,0.9c0,0.2-0.1,0.3-0.2,0.5c-0.1,0.3-0.2,0.7-0.3,1.1
		c-0.1,0.2-0.1,0.4-0.1,0.5c-0.1,0.4-0.2,0.8-0.3,1.1c0,0.2-0.1,0.4-0.1,0.7c0,0.1,0,0.3,0,0.3C136.6,13.7,136.5,14.7,136.6,15.6z"
		/>
	<path class="st1" d="M175.9,7.3c-0.1,0.1-1,0-1.1,0.1s0.1,0.6,0.1,0.8c0.2,0.4,1,1.1,1.6,0.7c0-0.2,0-0.4,0-0.6
		c0-0.2,0.2-0.8-0.1-0.9C176.4,7.2,176.1,7.3,175.9,7.3z"/>
	<path class="st1" d="M151.6,8.5c-0.2,0.1-0.5,0.1-0.6,0.3c-0.1,0.2-0.2,0.5-0.2,0.8c-0.1,0.3-0.2,0.6-0.3,0.9
		c0,0.1-0.1,0.2-0.1,0.3c-0.1,0.2-0.1,0.3-0.2,0.4c-0.1,0.2-0.1,0.5-0.1,0.6c-0.1,0.2-0.1,0.4-0.2,0.6c-0.4,0.9-0.5,1.8-0.9,2.7
		c-0.1,0.2-0.1,0.4-0.1,0.6c-0.2,0.6-0.5,1.1,0.3,1.4c0.3,0.1,0.6,0.1,0.8,0.1c0.4-0.2,0.9-1,1.1-1.4c0.4-0.6,0.9-1.3,1.4-1.9
		c0,0,0.1-0.1,0.2-0.2c0.2-0.1,0.3-0.3,0.4-0.5c0.1,0,0.2-0.2,0.2-0.2c0.1-0.2,0.2-0.2,0.3-0.4c0.1-0.1,0.2-0.2,0.3-0.3
		c0.1-0.2,0.3-0.4,0.6-0.6l0.1,0c0,0.2,0,0.5,0,0.8c0,0.4-0.1,0.9-0.1,1.3c0,0.2,0,0.4-0.1,0.6c0,0.1,0,0.3,0,0.5c0,0.1,0,0.1,0,0.2
		c0.1,0.4-0.2,1,0,1.4c0.1,0.1,1.2,0.5,1.5,0.3c0.3-0.2,0.4-0.5,0.6-0.7c0.4-0.5,0.7-1,1.1-1.4c0,0,0.1-0.1,0.1-0.1
		c0.1-0.1,0.2-0.2,0.3-0.4c0.3-0.4,0.6-0.8,0.9-1.2c0.1-0.1,0.4-0.6,0.6-0.5c0.1,0.1,0.1,0.2,0.1,0.4c-0.1,0.3-0.1,0.9-0.2,1.4
		c0,0.4-0.1,0.8-0.1,1.1c0,0.1,0,0.2,0,0.4c-0.1,1.3,0.3,2.7,2.2,2.3c0.2,0,0.3,0,0.4,0c0,0,0.1-0.1,0.1-0.1c-0.5,0-0.8-1-0.8-1.5
		c0,0,0-0.2,0-0.2c0-0.4,0-0.8,0.1-1.1c0-0.1,0.1-0.3,0.1-0.4c0-0.2,0.1-0.3,0.1-0.5c0-0.2,0-0.4,0.1-0.5c0.1-0.5,0.3-1.7,0.2-2
		l-0.1-0.2c-0.2-0.1-1-0.4-1.3-0.4c-0.4,0.1-0.8,0.6-1.1,0.9c-0.1,0.1-0.2,0.2-0.3,0.3c-0.5,0.5-1.2,1.3-1.7,1.9
		c0,0.1-0.1,0.1-0.1,0.2c-0.2,0.2-0.3,0.3-0.5,0.5v0c-0.1-0.1,0-0.2,0-0.3c0-0.3,0-0.6,0.1-0.8l0.3-1.8c0.1-0.2,0.1-0.5,0.1-0.7
		c0-0.1,0-0.1,0-0.1c0-0.1-0.1-0.2-0.1-0.2c-0.2-0.2-1.1-0.7-1.6-0.5c-0.2,0.1-0.4,0.2-0.5,0.4c0,0-0.1,0.1-0.1,0.1
		c-0.3,0.2-0.6,0.6-0.9,0.9c-0.2,0.2-0.3,0.3-0.6,0.5c-0.1,0.1-0.2,0.2-0.3,0.3c-0.1,0.2-0.5,0.6-0.7,0.8c-0.1,0.1-0.1,0.2-0.2,0.2
		h-0.1c0,0,0,0,0-0.1c0,0,0,0,0-0.1c0-0.3,0.1-0.6,0.2-0.8c0-0.2,0.1-0.4,0.2-0.6c0.3-0.6,0.5-1.2,0.7-1.8
		C153.1,9.1,152.6,8.5,151.6,8.5z"/>
	<path class="st1" d="M165.7,8.7l-0.3,0c-0.2,0-0.3,0.1-0.4,0.2c-0.1,0.3-0.2,0.5-0.3,0.8c-0.1,0.3-0.2,0.7-0.3,0.9
		c-0.4,1.1-0.7,1.7-1.1,2.8c-0.1,0.2-0.2,0.4-0.2,0.6c0,0.1-0.1,0.2-0.1,0.4c0,0.1,0,0.2-0.1,0.2c-0.1,0.2-0.3,0.9-0.3,1
		c-0.1,0.3-0.1,0.6-0.1,0.9c0,0.1,0.1,0.2,0.1,0.3c0.1,0.1,0.2,0.1,0.3,0.2c0.2,0.1,0.4,0.2,0.6,0.3c0.1,0,0.1,0,0.1,0
		c0.6,0,0.9-1,1.2-1.4c0.4-0.6,0.8-1.2,1.3-1.7c0.1-0.1,0.3-0.4,0.4-0.5c0.2-0.2,0.4-0.4,0.7-0.7c0.3-0.3,0.6-0.7,0.9-0.7
		c0,0,0.1,0,0.1,0c0,0,0,0.1,0.1,0.1c-0.1,0.9-0.3,2-0.2,2.9c0,0.3,0,0.5,0,0.7c0,0.2,0.1,0.4,0.1,0.6c0.1,0.3,0.1,0.6,0.3,0.9
		c0.1,0.1,0.2,0.2,0.2,0.2c0.4,0.1,0.8,0.2,1.2,0.1c0.3-0.1,0.5-0.3,0.7-0.5c0.3-0.3,0.6-0.5,0.9-0.9c0.2-0.2,0.4-0.5,0.5-0.7
		c0.1-0.2,0.2-0.4,0.2-0.6h0c-0.1,0.1-0.3,0.2-0.4,0.3c-0.3,0.2-1.2,0.7-1.8,0.6c-0.2-0.3-0.1-0.9-0.1-1.3c0-0.8,0.1-1.5,0.3-2.3
		c0.1-0.2,0.1-0.4,0.2-0.6c0-0.1,0-0.1,0-0.2c0.1-0.1,0.1-0.3,0-0.4c0-0.1-0.1-0.2-0.3-0.3c-0.3-0.2-0.6-0.4-1-0.3
		c-0.1,0-0.2,0.1-0.3,0.1c-0.5,0.3-1,0.6-1.4,1c-0.4,0.3-0.8,0.6-1.1,0.9c-0.2,0.1-0.8,0.9-1,0.9l-0.1,0c0-0.1,0.1-0.2,0.1-0.3
		c0.1-0.4,0.3-0.6,0.5-1c0-0.1,0.3-0.8,0.4-1c0.1-0.2,0.5-1.1,0.5-1.3c0.1-0.2,0.1-0.4,0-0.6c-0.1-0.2-0.2-0.4-0.5-0.5
		C166.1,8.8,166,8.7,165.7,8.7z"/>
	<path class="st1" d="M147.1,10.8c-0.3-0.2-0.6-0.3-0.9-0.4c-0.1,0-0.3,0-0.4,0c-0.1,0.2-0.2,0.4-0.3,0.6c-0.1,0.2-0.3,0.5-0.4,0.7
		c0,0.1-0.1,0.2-0.1,0.2c-0.1,0.1-0.1,0.2-0.2,0.3c-0.1,0.1-0.2,0.2-0.2,0.3c0,0.1-0.1,0.2-0.1,0.2c-0.1,0.1-0.2,0.2-0.2,0.3
		c-0.1,0.1-0.1,0.2-0.2,0.3c0,0-0.4,0.5-0.6,0.7l-0.2,0.2c-0.1,0.1-0.2,0.2-0.3,0.3c-0.1,0-0.2,0.2-0.3,0.3
		c-0.2,0.2-0.4,0.4-0.7,0.4c0,0-0.1-0.1-0.1-0.1c0-0.1,0-0.2,0-0.3c0-0.2,0.1-0.3,0.1-0.5c0-0.1,0.1-0.2,0.1-0.3
		c0-0.1,0-0.2,0.1-0.3c0-0.1,0.1-0.3,0.1-0.4c0.1-0.1,0.1-0.2,0.1-0.3c0.2-0.4,0.3-0.8,0.6-1.2c0.3-0.6,0.9-1.8,0.9-1.9
		c0.1-0.1,0.1-0.2,0.1-0.4s0-0.2-0.1-0.3c-0.1-0.1-0.1-0.2-0.3-0.3c-0.1-0.1-0.2-0.1-0.4-0.1c-0.2-0.1-0.4-0.1-0.6,0
		c-0.2,0.1-0.3,0.1-0.4,0.3c-0.1,0.1-0.1,0.2-0.1,0.3c-0.1,0.1-0.2,0.3-0.3,0.5c0,0.1,0,0.1-0.1,0.2c-0.1,0.2-0.2,0.5-0.3,0.7
		c-0.3,0.7-0.6,1.4-0.8,2.1c-0.1,0.2-0.2,0.5-0.2,0.8c-0.1,0.2-0.2,0.8-0.3,1c0,0.1,0,0.2-0.1,0.3c0,0.1,0,0.2,0,0.2
		c0,0.3,0,0.6,0.1,0.9c0,0.1,0.1,0.2,0.2,0.3c0.2,0.1,0.5,0.2,0.7,0.2c0.2,0,0.4,0,0.5,0c0.4-0.1,0.9-0.6,1-0.7
		c0.1-0.1,0.6-0.6,0.7-0.7c0,0,0.4-0.4,0.5-0.6c0.2-0.2,0.3-0.4,0.5-0.6c0.2-0.2,0.4-0.4,0.6-0.7c0,0,0.1,0,0.1,0
		c0,0.2,0,0.5-0.1,0.8c0,0.2-0.1,0.5-0.1,0.7c0,0.3,0,0.6,0.1,0.9c0.1,0.2,0.2,0.4,0.3,0.6c0.1,0.1,0.2,0.2,0.4,0.3
		c0.2,0.1,0.4,0.2,0.7,0.3c0.3,0,0.6,0,0.9-0.1c0.4-0.2,0.7-0.4,1-0.7c0.3-0.3,0.4-0.7,0.5-1.1c-0.2,0.2-0.4,0.3-0.6,0.4
		c-0.2,0.1-1,0.4-1.2,0.1c-0.2-0.2-0.1-0.7-0.1-1c0.2-1.2,0.4-2.3,0.8-3.5c0-0.1,0-0.2,0-0.2c0-0.1,0-0.2-0.1-0.3
		C147.3,10.9,147.2,10.9,147.1,10.8z"/>
	<path class="st1" d="M174.5,9.8l-0.3,0c-0.1,0-0.2,0.1-0.3,0.2c-0.3,0.3-0.5,1.3-0.6,1.7c-0.2,0.7-0.5,1.8-0.7,2.7
		c-0.1,0.4-0.1,0.8-0.1,1.2c0.1,0.8,0.3,1.1,0.7,1.4c0.2,0.2,0.5,0.2,0.8,0.3c0.6,0.1,1.6-0.6,1.9-1.1c0.1-0.2,0.2-0.5,0.3-0.7
		c0-0.1,0.1-0.2,0-0.3l-0.1,0c-0.3,0.4-0.7,0.6-1.2,0.8c-0.3,0.1-0.6,0.1-0.7-0.2c0-0.3,0.1-0.7,0.2-1c0-0.2,0.1-0.4,0.2-0.6
		c0.1-0.3,0.1-0.6,0.2-0.9c0-0.1,0.2-0.6,0.2-0.7c0.3-0.6,0.4-1,0.6-1.6C175.9,10.4,175.2,9.9,174.5,9.8z"/>
	<path class="st1" d="M126.9,14.2c-0.2,0.6-0.7,2-0.2,2.6c0.1,0.1,0.3,0.2,0.4,0.3c0.1,0.1,0.2,0.1,0.3,0.1c0.5,0.1,1.4-0.4,1.6-0.6
		c0.2-0.2,0.7-0.7,0.8-0.9c0.1-0.1,0.3-0.4,0.4-0.5c0.1-0.1,0.6-0.7,0.6-0.8c0.2-0.3,0.5-0.6,0.7-0.8c0,0,0.1,0,0.1,0.1
		c-0.1,0.3-0.1,0.6-0.1,0.9c0,0.5,0,1,0.1,1.4c0.1,0.6,0.3,1.1,0.9,1.2c0.2,0.1,0.4,0.1,0.6,0c0.2,0,0.4-0.1,0.6-0.2
		c0.5-0.2,0.9-0.5,1.3-0.9c0.1-0.1,0.2-0.2,0.3-0.3c0.2-0.2,0.5-0.4,0.5-0.8c-0.3,0.1-0.7,0.4-0.9,0.4c-0.2,0.1-1,0.4-1.3,0.2
		c-0.3-0.2-0.3-0.6-0.3-1c0-0.2,0-0.5,0.1-0.7c0-0.2,0.1-0.5,0.2-0.8c0.1-0.4,0.3-0.9,0.4-1.3c0.1-0.3,0.3-0.7,0.3-0.7
		c0-0.1,0.1-0.2,0-0.3c-0.1-0.3-0.5-0.4-0.8-0.5c-0.8-0.2-1,0.5-1.2,0.9c-0.2,0.2-0.3,0.5-0.5,0.7c-0.1,0.1-0.2,0.3-0.2,0.3
		c-0.1,0.1-0.4,0.5-0.5,0.6c-0.4,0.5-1.3,1.6-1.4,1.7c-0.2,0.2-0.4,0.4-0.6,0.6c-0.1,0.1-0.3,0.2-0.6,0.2c-0.2,0-0.3-0.2-0.3-0.4
		c0-0.5,0.5-1.5,0.8-1.9l0.3-0.6c0.2-0.3,0.5-0.7,0.8-1.1c0.2-0.2,0.3-0.3,0.5-0.5c0.1-0.1,0.2-0.2,0.4-0.4c0.1-0.1,0.2-0.2,0.4-0.3
		c0.2-0.2,0.4-0.3,0.6-0.4c0.1-0.1,0.3-0.1,0.4-0.2c0.6-0.2,0.9,0,1.2,0.2c0,0,0.1,0.2,0.2,0.2c0.1,0,0.1-0.1,0.1-0.1
		c0-0.8-0.6-1.4-1.2-1.6c-0.5-0.1-1.1,0.2-1.4,0.3c-0.3,0.1-0.6,0.3-0.8,0.5c-0.2,0.1-0.4,0.3-0.6,0.4c-0.2,0.1-0.4,0.4-0.5,0.4
		c-0.1,0.2-0.5,0.6-0.6,0.7c-0.1,0-0.6,0.8-0.9,1.1C127.7,12.7,127.3,13.4,126.9,14.2z"/>
</g>
</svg>
